# xmcd
#
# Track frame offsets:
#	150
#	19405
#	38337
#	55928
#	73049
#	94440
#	114489
#	134723
#	150362
#	166375
#	181335
#	196447
#	214681
#	229106
#	246574
#	266867
#	285301
#	303970
#	322288
#
# Disc length: 4551 seconds
#
# Revision: 0
# Processed by: cddbd v1.5.2PL0 Copyright (c) Steve Scherf et al.
# Submitted via: EasyCDDAExtractor 16.0.8.1
#
DISCID=1c11c513
DTITLE=Nu Urban Traxx Volume 206 US
DYEAR=2014
DGENRE=blues
TTITLE0=Rick Ross ft. R. Kelly\n - Keep Doin' That (Rich Chick]\n
TTITLE1=Usher ft. Juicy J\n - I Don't Mind\n
TTITLE2=Wale ft. Jeremih\n - The Body\n
TTITLE3=Jamie Foxx ft. 2 Chainz\n - Party Ain't A Party\n
TTITLE4=Alicia Keys\n - We Are Here\n
TTITLE5=Big Sean ft. E-40\n - I Don't F**k With You\n
TTITLE6=I Love Makonnen ft. Drake\n - Tuesday\n
TTITLE7=Kid Ink ft. Usher and Tinashe\n - Body Language\n
TTITLE8=Que ft. Trey Songz\n - Too Much\n
TTITLE9=Shy Glizzy\n - Awwsome\n
TTITLE10=Mali Music\n - Heavy Love\n
TTITLE11=Raheem DeVaughn\n - Queen\n
TTITLE12=Jazmine Sullivan\n - Forever Don't Last\n
TTITLE13=Tank\n - Stronger\n
TTITLE14=Partynextdoor ft. Drake\n - Recognize\n
TTITLE15=DJ Drama ft. Jeezy,  Young thug and Rich Homie Quan\n - Right Back\n
TTITLE16=K. Michelle\n - Love Them All\n
TTITLE17=Aretha Franklin\n - Rolling In The Deep\n
TTITLE18=Big K.R.I.T. ft. Rico Love\n - Pay Attention\n
EXTD=
EXTT0=
EXTT1=
EXTT2=
EXTT3=
EXTT4=
EXTT5=
EXTT6=
EXTT7=
EXTT8=
EXTT9=
EXTT10=
EXTT11=
EXTT12=
EXTT13=
EXTT14=
EXTT15=
EXTT16=
EXTT17=
EXTT18=
PLAYORDER=
